# xmcd
#
# Track frame offsets:
#	182
#	15190
#	30527
#	45847
#	59490
#	73392
#	89720
#	107097
#	121525
#	136772
#
# Disc length: 2028 seconds
#
# Revision: 1
# Processed by: cddbd v1.4PL0 Copyright (c) Steve Scherf et al.
# Submitted via: audiograbber 1.81.02
#
DISCID=7a07ea0a
DTITLE=Lee Greenwood - Best of
DYEAR=1992
DGENRE=Country
TTITLE0=Dixie Road
TTITLE1=I Don't Mind the Thorns
TTITLE2=Mornin' Ride
TTITLE3=Hearts Aren't Made to Break
TTITLE4=Don't Underestimate My Love for You
TTITLE5=It Turns Me Inside Out
TTITLE6=I Still Look for You
TTITLE7=Love Lying Next to Me
TTITLE8=Enough Already
TTITLE9=Whose Fool I Wanna Be
EXTD=
EXTT0=
EXTT1=
EXTT2=
EXTT3=
EXTT4=
EXTT5=
EXTT6=
EXTT7=
EXTT8=
EXTT9=
PLAYORDER=
